<svg width="40" height="48" viewBox="0 0 40 48" fill="none" xmlns="http://www.w3.org/2000/svg">
<path d="M33.4421 25.1617C33.4192 21.2589 35.1874 18.3176 38.7582 16.1488C36.7611 13.2876 33.7396 11.7139 29.7568 11.4106C25.9857 11.113 21.8598 13.608 20.3491 13.608C18.7525 13.608 15.1016 11.5136 12.2289 11.5136C6.30043 11.6052 0 16.2403 0 25.671C0 28.4578 0.509299 31.3362 1.5279 34.3004C2.88984 38.2031 7.79971 47.7654 12.9213 47.6109C15.5994 47.5479 17.4936 45.711 20.9785 45.711C24.3605 45.711 26.1116 47.6109 29.0987 47.6109C34.2661 47.5365 38.7067 38.8441 40 34.9299C33.0701 31.6624 33.4421 25.3619 33.4421 25.1617ZM27.4278 7.70815C30.329 4.26323 30.0658 1.12732 29.98 0C27.4163 0.148784 24.4521 1.74535 22.7639 3.70815C20.9041 5.81402 19.8112 8.41774 20.0458 11.3534C22.8154 11.5651 25.3448 10.1402 27.4278 7.70815Z" fill="#4D4D4D"/>
</svg>
