<svg width="45" height="45" viewBox="0 0 45 45" fill="none" xmlns="http://www.w3.org/2000/svg">
<path fill-rule="evenodd" clip-rule="evenodd" d="M22.5 45C10.073 45 0 34.927 0 22.5C0 10.073 10.073 0 22.5 0C34.927 0 45 10.073 45 22.5C45 34.927 34.927 45 22.5 45ZM32.6095 19.7156C33.0511 16.7681 30.8053 15.1833 27.7369 14.1258L28.7325 10.132L26.3025 9.52734L25.3322 13.4156C24.6938 13.2553 24.0384 13.1062 23.3845 12.9572L24.3619 9.04359L21.9319 8.4375L20.9362 12.4298C20.4075 12.3089 19.8872 12.1908 19.3838 12.0642L19.3866 12.0516L16.0341 11.2148L15.3872 13.8108C15.3872 13.8108 17.1914 14.2242 17.1534 14.2495C18.1378 14.4956 18.315 15.1467 18.2855 15.6642L17.152 20.2134C17.2195 20.2303 17.3067 20.2556 17.4052 20.2936L17.1478 20.2303L15.5588 26.6034C15.4378 26.9016 15.1327 27.3502 14.4436 27.18C14.4689 27.2152 12.6773 26.7398 12.6773 26.7398L11.4708 29.5214L14.6348 30.3103C15.2227 30.458 15.7992 30.6127 16.3659 30.7575L15.3605 34.7962L17.7891 35.4009L18.7847 31.4072C19.4484 31.5858 20.0925 31.7517 20.7225 31.9092L19.7297 35.8861L22.1597 36.4908L23.1652 32.4605C27.3108 33.2452 30.427 32.9287 31.7391 29.1797C32.7966 26.1619 31.687 24.4195 29.5059 23.2847C31.095 22.9191 32.2903 21.8742 32.6095 19.7156ZM27.0548 27.5034C26.3053 30.5227 21.2217 28.89 19.5736 28.4808L20.9095 23.13C22.5577 23.542 27.8409 24.3563 27.0548 27.5034ZM27.8072 19.672C27.1223 22.4184 22.8923 21.022 21.5212 20.6803L22.7306 15.8287C24.1017 16.1705 28.5216 16.8075 27.8072 19.672Z" fill="#CF9931"/>
</svg>
