<svg width="45" height="52" viewBox="0 0 45 52" fill="none" xmlns="http://www.w3.org/2000/svg">
<g clip-path="url(#clip0)">
<path d="M39.3353 10.0793C39.2999 9.82262 39.0751 9.68059 38.8893 9.66495C38.7039 9.64948 34.779 9.35856 34.779 9.35856C34.779 9.35856 32.0532 6.65241 31.754 6.35288C31.4547 6.05352 30.87 6.14458 30.6431 6.21137C30.6097 6.22122 30.0475 6.39471 29.1176 6.68247C28.2071 4.06227 26.6001 1.65442 23.773 1.65442C23.695 1.65442 23.6146 1.65759 23.5343 1.66216C22.7303 0.598855 21.7343 0.136902 20.874 0.136902C14.2884 0.136902 11.1421 8.36962 10.1556 12.5532C7.59657 13.3462 5.77864 13.9099 5.54643 13.9828C4.11803 14.4309 4.07285 14.4759 3.8853 15.8219C3.74414 16.8409 0.00668335 45.7444 0.00668335 45.7444L29.1298 51.201L44.9096 47.7873C44.9096 47.7873 39.3703 10.3359 39.3354 10.0793H39.3353ZM27.508 7.18028L25.0437 7.943C25.0446 7.76932 25.0455 7.59846 25.0455 7.41161C25.0455 5.78317 24.8194 4.47202 24.4568 3.43262C25.9135 3.61544 26.8836 5.27288 27.508 7.18028ZM22.6498 3.75553C23.0548 4.77032 23.3181 6.22667 23.3181 8.1919C23.3181 8.29245 23.3172 8.38438 23.3163 8.47737C21.7137 8.97378 19.9723 9.51272 18.2269 10.0534C19.2069 6.27132 21.0438 4.4446 22.6498 3.75553ZM20.6931 1.90333C20.9774 1.90333 21.2637 1.99983 21.5378 2.18844C19.4272 3.18161 17.1649 5.68298 16.2095 10.6782L12.1866 11.9241C13.3056 8.11403 15.9627 1.90333 20.693 1.90333H20.6931Z" fill="#95BF46"/>
<path d="M38.8893 9.66498C38.7039 9.64951 34.779 9.3586 34.779 9.3586C34.779 9.3586 32.0532 6.65244 31.754 6.35291C31.642 6.24147 31.491 6.18434 31.3332 6.15973L29.1312 51.2007L44.9096 47.7874C44.9096 47.7874 39.3701 10.3359 39.3353 10.0793C39.2999 9.82266 39.0751 9.68063 38.8893 9.66498Z" fill="#5E8E3E"/>
<path d="M23.773 18.3841L21.8273 24.1719C21.8273 24.1719 20.1226 23.2621 18.0329 23.2621C14.9694 23.2621 14.8152 25.1846 14.8152 25.669C14.8152 28.3124 21.7058 29.3253 21.7058 35.517C21.7058 40.3884 18.6161 43.5252 14.4501 43.5252C9.45087 43.5252 6.89431 40.4139 6.89431 40.4139L8.23288 35.9912C8.23288 35.9912 10.8608 38.2474 13.0783 38.2474C14.5273 38.2474 15.1167 37.1066 15.1167 36.273C15.1167 32.8249 9.46353 32.6711 9.46353 27.0051C9.46353 22.2364 12.8863 17.6216 19.7956 17.6216C22.4578 17.6216 23.773 18.3841 23.773 18.3841Z" fill="white"/>
</g>
<defs>
<clipPath id="clip0">
<rect width="45" height="51.3281" fill="white"/>
</clipPath>
</defs>
</svg>
