<svg width="15" height="9" viewBox="0 0 15 9" fill="none" xmlns="http://www.w3.org/2000/svg">
<path d="M14.7602 6.92036L8.07887 0.239146C7.92448 0.084756 7.71863 0 7.49436 0C7.2746 0 7.06863 0.084756 6.91448 0.239146L0.239389 6.91402C0.0849997 7.06853 0 7.2745 0 7.49426C0 7.71402 0.0848777 7.92011 0.239389 8.0745L0.730973 8.56609C0.885362 8.72048 1.09146 8.80572 1.31121 8.80572C1.53097 8.80572 1.73694 8.72048 1.89146 8.56609L7.49668 2.96085L13.1081 8.57255C13.2625 8.72682 13.4685 8.81194 13.6884 8.81194C13.9081 8.81194 14.114 8.72682 14.2685 8.57255L14.7602 8.08072C15.0799 7.76084 15.0799 7.24023 14.7602 6.92036Z" fill="#58AF66"/>
</svg>
