<svg width="124" height="40" viewBox="0 0 124 40" fill="none" xmlns="http://www.w3.org/2000/svg">
<path d="M53.4501 39.3333H43.3894L49.6772 0.690492H59.739L53.4501 39.3333ZM34.9257 0.690492L25.3343 27.2693L24.1993 21.5459L24.2003 21.5479L20.815 4.16983C20.815 4.16983 20.4057 0.690492 16.0426 0.690492H0.186061L0 1.34481C0 1.34481 4.84895 2.35367 10.5238 5.76168L19.2645 39.3343H29.747L45.7534 0.690492H34.9257ZM114.058 39.3333H123.296L115.242 0.689459H107.155C103.42 0.689459 102.51 3.56927 102.51 3.56927L87.5055 39.3333H97.9931L100.09 33.5933H112.88L114.058 39.3333ZM102.988 25.664L108.274 11.2029L111.248 25.664H102.988ZM88.2921 9.9832L89.7279 1.68488C89.7279 1.68488 85.2976 0 80.6791 0C75.6865 0 63.8303 2.18208 63.8303 12.7927C63.8303 22.7759 77.7456 22.9 77.7456 28.1438C77.7456 33.3876 65.264 32.448 61.1448 29.1413L59.6491 37.8179C59.6491 37.8179 64.1414 40 71.005 40C77.8706 40 88.228 36.4452 88.228 26.77C88.228 16.7227 74.1877 15.7873 74.1877 11.419C74.1887 7.04964 83.9869 7.61092 88.2921 9.9832Z" fill="#C6C6C6"/>
<path d="M24.2003 21.5469L20.8151 4.16879C20.8151 4.16879 20.4057 0.689453 16.0426 0.689453H0.186061L0 1.34377C0 1.34377 7.62126 2.92322 14.9314 8.84099C21.9211 14.4972 24.2003 21.5469 24.2003 21.5469Z" fill="#C6C6C6"/>
</svg>
