<svg width="98" height="40" viewBox="0 0 98 40" fill="none" xmlns="http://www.w3.org/2000/svg">
<path fill-rule="evenodd" clip-rule="evenodd" d="M42.3632 22.6803C43.7127 23.2052 45.0621 23.7678 46.3744 24.4048C42.1717 26.0907 38.1101 28.1091 34.2283 30.4407C32.916 29.7654 31.5666 29.0913 30.2171 28.4909C34.1156 26.242 38.1645 24.2927 42.3632 22.6803ZM37.3394 20.9186C32.9942 22.3076 28.7894 24.1023 24.7805 26.2792C26.055 26.7669 27.3296 27.2541 28.5669 27.779C32.4337 25.4889 36.5143 23.5806 40.7508 22.081C39.626 21.6682 38.5019 21.2559 37.3394 20.9186Z" fill="#BFBFBF"/>
<path fill-rule="evenodd" clip-rule="evenodd" d="M68.942 29.1662C69.0169 29.391 69.205 29.4659 69.392 29.4659C69.5041 29.4659 69.6173 29.4659 69.6922 29.391C69.739 29.3396 69.7657 29.2729 69.7671 29.2034C69.7671 29.0536 69.655 28.9787 69.5041 28.9787L69.2422 28.9038C69.1673 28.8661 69.0541 28.866 68.9792 28.7911C68.9043 28.7162 68.8671 28.6042 68.8671 28.4915C68.8671 28.1919 69.1301 28.0798 69.392 28.0798C69.6173 28.0798 69.842 28.1919 69.9169 28.4543L69.7299 28.4915C69.7299 28.3411 69.5418 28.2291 69.3548 28.2291C69.2428 28.2291 69.0546 28.304 69.0546 28.4538C69.0546 28.6413 69.1679 28.6785 69.3177 28.7162L69.5418 28.7534C69.655 28.7906 69.7671 28.8283 69.842 28.8655C69.9169 28.9781 69.9541 29.0536 69.9541 29.2034C69.9541 29.3155 69.9169 29.4659 69.8043 29.5408C69.6922 29.6162 69.5413 29.6534 69.392 29.6534C69.0918 29.6534 68.9048 29.503 68.7928 29.2034L68.942 29.1662ZM70.4041 29.6162H70.2548V28.117H70.5162L71.005 29.3161L71.4162 28.117H71.7164V29.6162H71.5294V28.304L71.0411 29.6162H70.8913L70.4041 28.304V29.6162ZM51.4731 22.4934C48.0304 20.8483 44.4719 19.4574 40.8262 18.3318C39.5139 18.7064 38.2394 19.1186 37.002 19.5315C40.7548 20.6591 44.4147 22.0752 47.9491 23.7673C49.1115 23.3173 50.2729 22.9056 51.4731 22.4934ZM57.0589 20.8437C53.5721 19.3068 49.9355 18.0322 46.224 17.0201C45.0243 17.2449 43.8625 17.5073 42.7006 17.8069C46.3744 18.8945 49.9727 20.2439 53.4223 21.8936C54.6214 21.5185 55.8587 21.1439 57.0589 20.8437ZM66.0556 23.8428C57.2453 26.8047 48.9978 31.0406 41.5381 36.3268C43.4124 37.4887 45.2119 38.6884 46.9736 40.0001C54.0714 34.3756 61.904 29.7467 70.2543 26.2415C68.884 25.3917 67.4835 24.5916 66.0556 23.8428ZM59.9825 20.9936C50.8349 23.3928 42.2506 27.2919 34.4901 32.4649C36.2147 33.3272 37.9392 34.2272 39.626 35.2016C47.2366 29.953 55.6718 25.8292 64.6684 23.1298C63.132 22.3807 61.5944 21.6311 59.9825 20.9936Z" fill="#C6C6C6"/>
<path fill-rule="evenodd" clip-rule="evenodd" d="M34.8275 3.11171C37.0392 3.11171 38.164 4.76134 38.164 6.97305C38.164 9.26023 37.0764 10.8721 34.8275 10.8721C32.5409 10.8721 31.4911 9.26023 31.4911 6.97305C31.4911 4.76134 32.6158 3.11171 34.8275 3.11171ZM34.8275 9.37231C35.4273 9.37231 35.6898 8.8474 35.6898 6.97305C35.6898 5.24851 35.5022 4.61153 34.8275 4.61153C34.1528 4.61153 33.9653 5.24851 33.9653 6.97305C33.9653 8.8474 34.2277 9.37231 34.8275 9.37231ZM39.7015 4.98606H38.7266V3.33643H39.7015V2.5119C39.7015 0.67472 40.6015 0 42.1757 0C42.6257 0 43.0002 0.0749046 43.3753 0.112639V1.94982C43.2298 1.90383 43.0784 1.87861 42.9259 1.87491C42.2889 1.87491 42.0636 2.13736 42.0636 2.5868V3.33699H43.3753V4.98662H42.0636V10.7223H39.7015V4.98606ZM11.847 5.39833C11.847 4.94832 11.6595 4.6487 11.2478 4.6487C10.648 4.6487 10.4604 5.1736 10.4604 5.62304L8.36079 5.17304C8.62268 3.7487 9.97268 3.14888 11.3221 3.14888C12.7465 3.14888 14.2463 3.74813 14.2463 5.39776V9.52155C14.2463 10.3461 14.3589 10.6085 14.471 10.7212H11.9968C11.9597 10.4965 11.9219 10.1585 11.9219 10.0465C11.5097 10.4587 10.7972 10.8716 10.1225 10.8716C8.92287 10.8716 8.02287 10.0465 8.0606 8.69702C8.09777 6.78494 10.2723 6.18512 11.847 5.99814V5.39833ZM11.847 7.16003C11.0225 7.23494 10.385 7.5723 10.385 8.50947C10.385 9.03438 10.6474 9.29683 11.0974 9.29683C11.3599 9.29683 11.66 9.10929 11.847 8.84684V7.16003ZM18.0327 5.43549V10.7217H15.6335V3.33643H17.9578L17.9956 4.08662C18.5205 3.56171 19.1574 3.14944 20.0946 3.14944C21.1444 3.14944 21.7442 3.86134 21.7442 4.87398V10.7223H19.345V5.62361C19.345 5.21134 19.1946 4.98662 18.7823 4.98662C18.5205 4.98606 18.2574 5.13587 18.0327 5.43549ZM23.2063 0.224716H25.6056V5.54814H25.6428L27.405 3.33643H29.7666L27.7801 5.58587L29.7666 10.7217H27.2924L26.1305 7.49739H26.0928L25.6056 8.06004V10.7217H23.2063V0.224716ZM5.51153 5.24851C6.63625 5.62361 7.46079 6.56078 7.46079 7.91079C7.46079 9.70967 6.03644 10.7223 4.01172 10.7223H0V0.224716H4.12379C5.99814 0.224716 7.19777 1.34944 7.19777 2.77379C7.19777 4.16096 6.2606 4.87342 5.51097 5.17304V5.24851H5.51153ZM2.5502 8.77249H3.52454C4.12436 8.77249 4.87398 8.51004 4.87398 7.46022C4.87398 6.67342 4.38681 6.14852 3.52454 6.14852H2.5502V8.77249ZM2.5502 4.38568H3.44964C4.38681 4.38568 4.7619 3.86077 4.7619 3.26096C4.7619 2.24888 4.08718 2.09907 3.48737 2.09907H2.5502V4.38568ZM91.7733 5.39833C91.7733 4.94832 91.548 4.6487 91.1363 4.6487C90.5731 4.6487 90.3861 5.1736 90.3489 5.62304L88.2876 5.17304C88.5495 3.7487 89.8989 3.14888 91.2489 3.14888C92.6733 3.14888 94.1725 3.74813 94.1725 5.39776V9.52155C94.1725 10.3461 94.2846 10.6085 94.3606 10.7212H91.9231C91.8859 10.4965 91.8482 10.1585 91.8482 10.0465C91.4359 10.4587 90.724 10.8716 90.011 10.8716C88.8497 10.8716 87.9119 10.0465 87.9496 8.69702C88.0246 6.78494 90.1991 6.18512 91.7733 5.99814V5.39833ZM91.7733 7.16003C90.9482 7.23494 90.3112 7.5723 90.3112 8.50947C90.3112 9.03438 90.5731 9.29683 90.9853 9.29683C91.2855 9.29683 91.5474 9.10929 91.7727 8.84684V7.16003H91.7733ZM67.2186 7.53513C67.1803 8.17211 67.3684 9.29683 68.3428 9.29683C68.9048 9.29683 69.392 8.84684 69.5041 8.28476L71.1166 8.8474C71.0045 9.18476 70.2915 10.8721 68.1541 10.8721C65.8669 10.8721 64.8177 9.03494 64.8177 6.97305C64.8177 4.87342 65.943 3.11171 68.1164 3.11171C70.4035 3.11171 71.2281 5.0987 71.2281 7.04796V7.53513H67.2186ZM69.0169 6.11022C69.0169 5.4355 68.942 4.61096 68.1169 4.61096C67.4428 4.61096 67.1797 5.4355 67.218 6.11022H69.0169ZM77.6402 3.33643H80.0394V10.7217H77.6402V3.33643ZM77.6402 0.224716H80.0394V2.36208H77.6402V0.224716ZM85.3245 6.07305C85.3245 5.77342 85.3246 5.39832 85.2125 5.13587C85.1004 4.83568 84.9123 4.61096 84.5383 4.61096C83.7509 4.61096 83.6383 5.58531 83.6383 7.08512C83.6383 8.73475 83.9002 9.29683 84.5383 9.29683C85.3623 9.29683 85.4372 8.43457 85.4372 7.87249L87.3115 8.13494C87.1246 9.93439 86.0753 10.8716 84.3502 10.8716C82.214 10.8716 81.0887 8.99721 81.0887 7.16003C81.0887 5.13587 82.214 3.11171 84.4623 3.11171C86.9747 3.11171 87.387 5.32342 87.387 6.07305H85.3245ZM47.5363 0.224716H51.0231L53.2353 10.7217H50.6857L50.2734 8.58494H47.8364L47.3493 10.7217H45.0627L47.5363 0.224716ZM48.1738 6.74777H49.8978L49.1487 2.47416H49.0727L48.1738 6.74777ZM72.2035 3.33643H74.5279V4.31134H74.5651C75.0522 3.52398 75.9522 3.14944 76.8894 3.14944V5.5487C76.5892 5.43606 76.3273 5.36115 75.9151 5.36115C75.2781 5.36115 74.8658 5.58587 74.6028 5.9238V10.7223H72.2035V3.33643ZM60.0946 5.43549V10.7217H57.7331V5.66078C57.7331 5.24851 57.621 4.98606 57.171 4.98606C56.9457 4.98606 56.5718 5.1736 56.3837 5.43549V10.7217H54.0221V3.33643H56.3465L56.3837 4.08662C56.9086 3.59945 57.6588 3.14944 58.521 3.14944C59.2701 3.14944 59.7573 3.56171 59.9831 4.12379H60.0203C60.4325 3.67379 61.1444 3.14944 62.1205 3.14944C63.1325 3.14944 63.8067 3.78643 63.8067 4.83625V10.7223H61.4452V5.66134C61.4452 5.24907 61.3331 4.98662 60.8831 4.98662C60.5824 4.98606 60.2456 5.24851 60.0946 5.43549ZM95.335 9.85948C95.335 9.29683 95.7839 8.8474 96.3842 8.8474C96.5173 8.84688 96.6491 8.8727 96.7721 8.92338C96.8952 8.97405 97.007 9.04858 97.101 9.14267C97.1951 9.23675 97.2696 9.34853 97.3203 9.47156C97.371 9.59458 97.3968 9.72642 97.3963 9.85948C97.3968 9.99253 97.371 10.1244 97.3203 10.2474C97.2696 10.3704 97.1951 10.4822 97.101 10.5763C97.007 10.6704 96.8952 10.7449 96.7721 10.7956C96.6491 10.8463 96.5173 10.8721 96.3842 10.8716C95.7839 10.8721 95.335 10.4216 95.335 9.85948ZM95.522 9.85948C95.522 10.3089 95.8971 10.6463 96.3842 10.6463C96.8342 10.6463 97.2093 10.3089 97.2093 9.85948C97.2093 9.40948 96.8342 9.03438 96.3842 9.03438C95.8971 9.03438 95.522 9.40948 95.522 9.85948Z" fill="#BFBFBF"/>
</svg>
