<svg width="132" height="40" viewBox="0 0 132 40" fill="none" xmlns="http://www.w3.org/2000/svg">
<path d="M81.8032 25.8033C79.6065 24.7869 78.7868 22.4262 79.836 20.1967C80.6885 18.3935 82.4589 17.6066 85.9999 17.4426C87.5737 17.3771 88.8524 17.1803 88.8524 17.0164C88.8524 15.8033 84.8852 15.3115 82.3278 16.2295L80.9835 16.6885V12.8197L82.5573 12.5574C83.4098 12.4262 85.4426 12.2951 87.0819 12.3279C89.5409 12.3279 90.3278 12.459 91.6393 13.1475C94.3606 14.4918 94.5901 15.0164 94.6885 20.8525L94.7868 25.9017H91.836C88.8524 25.9017 88.8524 25.9017 88.8524 25.0492V24.2295L87.6721 25.1148C86.2622 26.1967 83.4098 26.5246 81.8032 25.8033ZM88.0327 22.1312C88.4917 21.7049 88.8524 21.0492 88.8524 20.6558C88.8524 20.1312 88.6557 20 87.7704 20C85.7704 20 84.4262 21.7705 85.836 22.5902C86.7212 23.1148 87.1803 23.0164 88.0327 22.1312ZM60.6556 16.8853V7.80328L67.4753 7.93442C75.0819 8.06557 76.1966 8.32787 77.377 10.2295C78.6557 12.3279 77.8688 15.1148 75.7048 16.2295L74.6884 16.7869L75.7704 17.3115C77.4425 18.1639 78.4589 19.8689 78.2622 21.541C78.0655 23.2787 77.377 24.3935 75.9671 25.1476C75.0819 25.6394 73.8688 25.7377 67.8032 25.8361L60.6556 25.9344V16.8853ZM70.2622 21.9344C71.1147 21.4754 71.4753 21.0164 71.4753 20.2623C71.4753 19.2131 70.5245 18.6885 68.6556 18.6885H66.8852V20.2623C66.8852 21.1476 66.9835 21.9672 67.1147 22.0656C67.4425 22.4262 69.4753 22.3279 70.2622 21.9344ZM70.5245 14.4262C71.2458 14.0328 71.377 12.4918 70.754 11.8689C70.5245 11.6393 69.5737 11.4754 68.6229 11.4754H66.8852V14.7541H68.3934C69.213 14.7541 70.1639 14.5902 70.5245 14.4262ZM96.459 19.2787L96.5573 12.623L99.6065 12.5246L102.623 12.4262V13.2787C102.623 14.2951 102.787 14.2951 103.967 13.3115C105.803 11.7705 109.246 11.9344 110.852 13.6393C111.607 14.459 111.639 14.6557 111.738 20.1967L111.836 25.9017H105.279L105.18 21.2459C105.082 16.918 105.049 16.5574 104.459 16.459C103.246 16.1967 102.951 17.2459 102.951 21.7049V25.9017H96.3934L96.459 19.2787ZM114.098 16.2295V6.55737H120.328V11.9672C120.328 14.9508 120.459 17.3771 120.59 17.3771C120.754 17.3771 121.639 16.2623 122.59 14.918L124.295 12.459H127.902C130.721 12.459 131.443 12.5574 131.246 12.8852C131.115 13.082 130.197 14.3279 129.246 15.5738C128.262 16.8525 127.377 18.0656 127.311 18.2623C127.213 18.4918 128.131 20.1967 129.311 22.0656C130.492 23.9344 131.475 25.5738 131.475 25.6722C131.475 25.8033 129.803 25.9017 127.803 25.9017H124.098L122.492 22.9508C121.607 21.3115 120.754 20 120.59 20C120.459 20 120.328 21.3443 120.328 22.9508V25.9017H114.098V16.2295Z" fill="#BFBFBF"/>
<path d="M0 20V0H47.541V40H0V20ZM18.6885 21.4754V11.4754H25.6721C32.0656 11.4754 32.7213 11.541 33.7049 12.1311C35.7705 13.377 36.7869 17.7705 36.1311 22.3607C35.4098 27.1803 33.9672 28.2951 28.7869 28.1311L25.7377 28.0328L25.6393 20.4262L25.5738 12.7869H20V31.541L27.8033 31.4098L35.5738 31.3115L37.4754 30.3934C40.5246 28.8852 41.8689 26.2623 42.1967 21.1475C42.3934 17.9344 41.9344 14.3279 41.082 12.6557C40.3607 11.2131 39.0492 9.90164 37.541 9.08197C36.2623 8.36066 35.9016 8.36066 20.5902 8.26229L4.91803 8.16393V11.4754H13.1148V31.4754H18.6885V21.4754Z" fill="#BFBFBF"/>
</svg>
