<svg width="216" height="40" viewBox="0 0 216 40" fill="none" xmlns="http://www.w3.org/2000/svg">
<path d="M189.529 5.22324e-08C189.155 -0.00010176 188.795 0.14864 188.53 0.413536C188.265 0.678432 188.115 1.03781 188.115 1.41268V11.3122H214.27L202.359 0.0030661L189.529 5.22324e-08ZM215.228 14.3069C215.228 14.1214 215.192 13.9377 215.121 13.7663C215.05 13.5949 214.945 13.4393 214.814 13.3082C214.683 13.1772 214.527 13.0734 214.355 13.0027C214.184 12.9321 214 12.896 213.814 12.8965H203.916V39.0507L215.223 27.1368L215.228 14.3069ZM200.916 40C201.291 39.999 201.649 39.8496 201.913 39.5847C202.178 39.3197 202.326 38.9608 202.326 38.5866V28.6882H176.172L188.081 39.9973L200.916 40ZM175.217 25.6946C175.217 25.8802 175.253 26.0639 175.324 26.2354C175.395 26.4068 175.499 26.5627 175.63 26.6939C175.762 26.8252 175.917 26.9293 176.089 27.0003C176.26 27.0714 176.444 27.108 176.629 27.108H186.529V0.952007L175.218 12.8628L175.217 25.6946Z" fill="#BFBFBF"/>
<path d="M55.3341 4.77267V16.8506H38.5053V4.77267L32.3782 4.77037V35.2242H38.5053V22.141H55.3341V35.2242H61.4723V4.77267H55.3341ZM136.869 4.77267V35.2189L163.76 35.2173L160.353 29.8594H143.018V22.141H159.803V16.9778H143.018V10.0072H160.324L163.663 4.77267H136.869ZM9.59787 4.76884C3.22088 4.76884 0 8.64202 0 14.2824V25.6517C0 32.177 4.14836 35.225 9.56491 35.225L28.7905 35.2212L25.2289 29.6559H10.7515C7.67738 29.6559 6.33828 28.5449 6.33828 25.1025V14.7891C6.33828 11.4609 7.46467 10.1624 10.8335 10.1624H25.3799L28.8017 4.76922L9.59787 4.76884ZM109.974 4.76002C106.29 4.76002 102.519 6.97179 102.519 12.6647V14.1272C102.519 20.0581 106.151 22.3246 109.782 22.3411H122.534C123.859 22.3411 124.935 22.5603 124.935 24.8001L124.934 27.3886C124.901 29.3953 123.895 29.8594 122.489 29.8594H105.713L102.277 35.217H122.881C127.853 35.217 131.226 32.7461 131.226 27.0333V24.9346C131.226 19.4126 128.092 16.8069 123.232 16.8069H111.056C109.705 16.8069 108.765 16.4363 108.765 14.4368L108.764 12.332C108.764 10.6292 109.411 10.0072 110.983 10.0072L126.958 10.001L130.298 4.75427L109.974 4.76002ZM79.2814 4.77727L64.8407 35.2212H71.6669L74.4792 28.9339H90.1701L92.9736 35.2212H99.827L85.3533 4.77688L79.2814 4.77727ZM82.3076 11.0964L87.8567 23.7519H76.7933L82.3076 11.0964Z" fill="#BFBFBF"/>
</svg>
