<svg width="50" height="50" viewBox="0 0 50 50" fill="none" xmlns="http://www.w3.org/2000/svg">
<path d="M24.9992 11.1731L30.1584 4.86704C30.1584 4.86704 38.9957 5.05453 47.8016 9.14815C45.547 12.5574 41.0722 14.2261 41.0722 14.2261C40.7706 11.2309 38.6722 10.4997 31.999 10.4997L25.0008 50L17.9541 10.4919C11.3293 10.4919 9.23096 11.2247 8.92941 14.2183C8.92941 14.2183 4.45299 12.5668 2.19993 9.15596C11.0043 5.06234 19.8431 4.87485 19.8431 4.87485L25.0023 11.1731H24.9945H24.9992ZM24.9992 3.05147C32.1115 2.98584 40.2581 4.14987 48.5985 7.79507C49.7141 5.77638 49.9984 4.89047 49.9984 4.89047C40.8847 1.27652 32.3474 0.0328115 24.9992 0C17.651 0.0328115 9.11378 1.27027 0 4.89047C0 4.89047 0.406237 5.98888 1.39996 7.80444C9.74188 4.14206 17.8869 2.98741 24.9992 3.04365V3.05147Z" fill="#C6C6C6"/>
</svg>
