<svg width="50" height="50" viewBox="0 0 50 50" fill="none" xmlns="http://www.w3.org/2000/svg">
<path d="M23.4933 22.5167C22.846 22.7902 22.327 23.1975 21.942 23.7444C21.5569 24.2913 21.3616 24.9498 21.3616 25.7254C21.3616 26.7188 21.7801 27.4833 22.6116 28.0246C23.3984 28.5324 24.2243 28.6607 25.0893 28.404C26.0882 28.1138 26.7634 27.4051 27.1205 26.2779C27.2879 25.7589 27.3717 25.1786 27.3717 24.5312V21.7299C26.6685 21.7522 26.01 21.8192 25.3906 21.9364C24.7712 22.0536 24.1406 22.2489 23.4933 22.5167ZM25 0C11.1942 0 0 11.1942 0 25C0 38.8058 11.1942 50 25 50C38.8058 50 50 38.8058 50 25C50 11.1942 38.8058 0 25 0ZM26.9978 14.6596C26.596 14.0513 25.8761 13.7444 24.8382 13.7444C24.7656 13.7444 24.6708 13.75 24.5424 13.7612C24.4196 13.7723 24.1741 13.8449 23.8225 13.9676C23.4694 14.0939 23.1338 14.2646 22.8237 14.4754C22.5167 14.6875 22.1819 15.0335 21.8192 15.5022C21.4621 15.9766 21.1775 16.529 20.9654 17.1652L15.7199 16.6964C15.7199 16.0045 15.8538 15.3181 16.1105 14.6373C16.3728 13.9565 16.769 13.3036 17.3047 12.6842C17.8404 12.0592 18.4821 11.5123 19.2299 11.0435C19.9777 10.5692 20.8817 10.1953 21.9308 9.91071C22.9855 9.62612 24.1127 9.48661 25.3292 9.48661C26.5179 9.48661 27.5949 9.6317 28.5547 9.91629C29.5145 10.2065 30.2902 10.558 30.865 10.9821C31.4188 11.3817 31.9065 11.8656 32.3103 12.4163C32.6953 12.952 32.9632 13.4487 33.1138 13.9063C33.2645 14.3638 33.3371 14.7824 33.3371 15.1786V25.3627C33.3371 25.7199 33.4152 26.0882 33.577 26.4676C33.7388 26.8471 33.9286 27.1819 34.1462 27.4721C34.3638 27.7623 34.5871 28.0246 34.8158 28.2701C35.0446 28.51 35.24 28.6998 35.4074 28.8225L35.6362 29.0123L31.5904 32.885C31.1161 32.4554 30.6473 32.0257 30.1842 31.5792C29.721 31.1328 29.375 30.798 29.1518 30.5692L28.8114 30.2232C28.6775 30.0949 28.5324 29.9051 28.365 29.654C27.9129 30.3348 27.3326 30.9263 26.6295 31.4286C25.9208 31.9308 25.1618 32.2991 24.3583 32.5279C23.5491 32.7567 22.7176 32.8906 21.8638 32.9241C21.01 32.9576 20.1897 32.8404 19.4141 32.5614C18.6384 32.2824 17.9353 31.9085 17.3158 31.4286C16.6964 30.9487 16.2054 30.3013 15.8371 29.4754C15.4687 28.6496 15.2846 27.7176 15.2846 26.6629C15.2846 25.692 15.452 24.8047 15.7812 24.0011C16.1161 23.192 16.5402 22.5223 17.0647 21.9866C17.5893 21.4509 18.2199 20.971 18.9621 20.5525C19.7042 20.1339 20.4353 19.8047 21.1496 19.5647C21.8638 19.3304 22.6339 19.1295 23.4654 18.9676C24.2969 18.8058 25.0056 18.6998 25.5971 18.6496C26.1886 18.5993 26.7801 18.5603 27.3717 18.5379V16.3393C27.3717 15.5859 27.2433 15.0279 26.9978 14.6596ZM37.0703 35.8426C36.9141 36.0268 36.6518 36.2779 36.2835 36.596C35.9152 36.9141 35.346 37.3047 34.5815 37.7734C33.817 38.2422 32.9743 38.6663 32.0703 39.0513C31.1607 39.4364 30.0446 39.7712 28.7165 40.0558C27.394 40.3404 26.0268 40.4799 24.6261 40.4799C23.2087 40.4799 21.7969 40.3013 20.3795 39.9442C18.9621 39.5871 17.7232 39.1462 16.6518 38.6217C15.5859 38.0971 14.5536 37.4944 13.577 36.8248C12.5949 36.1496 11.808 35.5469 11.2109 35.0112C10.6194 34.4754 10.1172 33.9676 9.7154 33.4989C9.62054 33.3929 9.55915 33.298 9.53683 33.2143C9.51451 33.1306 9.52009 33.058 9.55357 33.0078C9.58705 32.9576 9.63728 32.9185 9.69866 32.885C9.76533 32.8555 9.83862 32.844 9.91114 32.8518C9.98365 32.8597 10.0528 32.8865 10.1116 32.9297C12.394 34.2801 14.1797 35.2344 15.4632 35.798C20.0893 37.8292 24.8382 38.3482 29.7098 37.3549C31.9699 36.8917 34.2913 36.1161 36.6797 35.0223C36.8583 34.9554 37.0145 34.9386 37.1429 34.9721C37.2712 35.0056 37.3382 35.106 37.3382 35.2734C37.3382 35.4297 37.2489 35.625 37.0703 35.8426ZM40.4129 34.2243C40.3125 34.8438 40.1395 35.4297 39.9051 35.9989C39.5033 36.9531 38.9955 37.673 38.3929 38.1417C38.192 38.3036 38.0357 38.3538 37.9297 38.298C37.8237 38.2422 37.8237 38.1027 37.9297 37.885C38.1808 37.3661 38.4431 36.6685 38.7221 35.7812C39.0011 34.8996 39.0402 34.3304 38.8393 34.0792C38.7779 33.9955 38.6886 33.9342 38.5603 33.8783C38.4375 33.8281 38.2757 33.7946 38.0804 33.7723C37.885 33.75 37.7065 33.7388 37.5558 33.7277C37.3996 33.7165 37.1931 33.7165 36.9308 33.7277C36.6685 33.7388 36.4844 33.75 36.3672 33.7612C36.0494 33.7922 35.7313 33.8201 35.4129 33.8449C35.3404 33.856 35.2623 33.8672 35.1842 33.8728C35.1004 33.8783 35.0335 33.8839 34.9888 33.8895L34.8382 33.9062C34.7824 33.9118 34.7433 33.9174 34.7154 33.9174H34.5368L34.481 33.9062L34.4475 33.8783L34.4196 33.8281C34.3471 33.644 34.6261 33.4152 35.2567 33.1362C35.8873 32.8571 36.5011 32.6842 37.0926 32.6172C37.6395 32.5335 38.2812 32.5335 39.0179 32.6004C39.7545 32.6674 40.2065 32.8069 40.3739 33.0134C40.5022 33.2087 40.5134 33.6105 40.4129 34.2243Z" fill="#C6C6C6"/>
</svg>
